<svg height="auto" viewBox="0 0 2000 1000" xmlns="http://www.w3.org/2000/svg"><path d="M0 974.031c42.5-7.564 165-8.34 250-44.496 85-36.156 165-140.594 250-168.185 85-27.59 165 42.468 250 5.886s165-191.441 250-221.073c85-29.632 165 48.56 250 46.77 85-1.79 165-10.1 250-57.3 85-47.198 165-155.154 250-220.338s207.5-135.369 250-163.095V1000H0Z" fill="#444cf71a"/><path d="M0 974.031c42.5-7.564 165-8.34 250-44.496 85-36.156 165-140.594 250-168.185 85-27.59 165 42.468 250 5.886s165-191.441 250-221.073c85-29.632 165 48.56 250 46.77 85-1.79 165-10.1 250-57.3 85-47.198 165-155.154 250-220.338s207.5-135.369 250-163.095" fill="none" stroke="#444cf7" stroke-width="2"/></svg>