<svg fill="#7c3aed" id="Layer_1" data-name="Layer 1" xmlns="http://www.w3.org/2000/svg" width="962.8" height="948.61" viewBox="0 0 962.8 948.61"><defs><style>.cls-1{fill:#fff;}</style></defs><path d="M945,199.92c-8.07-2.12-14-6.85-19.66-11.71-15.34-13.09-32.56-23.32-49.57-34-9.86-6.19-20.16-11.61-30.36-17-13-6.82-26.24-13.45-40.36-18.06-6.79-2.22-13.16-5.65-20-8-16.08-5.41-32.1-10.7-48.6-14.92-17.48-4.46-35.06-8.13-52.76-11.12-14.93-2.53-30.17-3.31-45.3-4.58-10.85-.91-21.76-2-32.62-1.83-16.3.33-32.61,1.52-48.88,2.75a424.28,424.28,0,0,0-60.17,8.6c-14.82,3.29-29.59,6.94-44.21,11.27-15.94,4.72-31.61,10.16-47,16.18-13.78,5.37-27.11,11.95-40.37,18.53-11.49,5.7-22.94,11.61-33.82,18.36-16.44,10.21-32.05,21.64-47.77,33-37,26.6-67.85,59.21-96.59,93.91C173,298,160.12,315.86,149.5,334.94c-8.84,15.9-17.94,31.66-25.69,48.24-6.07,13-12,26.05-17,39.33a453.08,453.08,0,0,0-15,46.44C87.22,486.34,83,503.78,80,521.42q-3.18,18.33-4.63,37.05c-1.37,17.53-2.84,35-3,52.59-.11,15.62,1.51,31.16,2.42,46.73.71,12.25,2.43,24.34,4,36.42,1.67,12.79,5,25.39,7.79,38,2.24,10.06,4.41,20.17,7.35,30,3.35,11.29,7.17,22.46,11.42,33.43C110.52,809,115.83,822.34,122,835.2c4.4,9.08,8.77,18.21,13.61,27.11,5.67,10.43,11.95,20.46,17.84,30.73,2.72,4.73,5.29,9.49,8.85,13.76,11.4,13.7,19,30.17,33.57,43.64-6.06,0-8.32-3-10.84-5.2-19.41-16.85-35.36-37-52-56.36C118.74,872.16,107,853.41,95.7,834.47a536.37,536.37,0,0,1-28-53C62.17,769.37,57,757.09,52.07,744.76a283.34,283.34,0,0,1-11.48-35c-2.17-8.6-4.49-17.21-6.81-25.79-4.73-17.45-7.31-35.29-10-53.11-3.35-21.92-4.38-44.06-5-66.13-.51-17.32.89-34.73,2.26-52,1.28-16.08,2.53-32.3,5.83-48,3.74-17.77,7.82-35.52,12.81-53.07A465.84,465.84,0,0,1,55.05,365c5.39-13.43,11-26.92,17.72-39.91,4.65-9,9.15-18.11,14.31-26.74,7.35-12.29,14.38-24.77,22.21-36.83C125.87,236,146.72,214,165.93,190.7c15.67-19,36-33.13,54.59-49,11.33-9.65,24.48-17.14,36.22-26.36,7.26-5.7,15.32-10.35,26-16.56,12.24-7.13,23-12.48,31.16-16.27,4.4-2.44,10.63-5.79,18.23-9.49C359,59.94,380.78,53.6,397,48.38a449.75,449.75,0,0,1,71.87-16.44c22.43-3.33,45.08-6.09,67.77-6.23,16.36-.1,32.77.42,49.17,1.36a516,516,0,0,1,57,6.62A457.89,457.89,0,0,1,708,49.32c15.73,5.11,31.14,10.67,46.42,17.09,15.75,6.61,31.22,13.63,46.64,21,20,9.5,37.56,23,56.65,33.93,11.2,6.43,19.89,16.45,30.56,23.91,21,14.71,38.3,33.67,56.09,52C944.78,197.6,944.69,198.5,945,199.92Z" transform="translate(-18.6 -25.69)"/><path d="M529.14,462.8c.38,1.22,1.19,2.39-.16,3.26s-2.19-.41-3.26-1c-3.82-2.11-6.37-5.81-6-9.55.54-5,5.25-7.37,10.83-9.76A21.87,21.87,0,0,0,529.14,462.8Z" transform="translate(-18.6 -25.69)"/><path d="M607.84,598.13c-1,2.43-4.87,3.06-8.54,2.86-11-.59-21.13-2.7-28-12.13-7.57-10.38-8.36-22.13-7.06-35.92a24.77,24.77,0,0,1,8.69,10.61c6.32,13.2,15.75,23,29.31,29C604.3,593.47,609.42,594.34,607.84,598.13Z" transform="translate(-18.6 -25.69)"/><path d="M635.14,550.47c-4.57-18.37-20.75-17.94-35.46-20.67,8.9-7.82,24.75-7.11,32.22.51C637.81,536.35,639.44,545.66,635.14,550.47Z" transform="translate(-18.6 -25.69)"/><path d="M756.07,631.09c-10.34-14.94-21.12-26.76-40.29-24.62,11.77-7.57,23.75-9.3,33.79-.89C756,611,758.21,620,756.07,631.09Z" transform="translate(-18.6 -25.69)"/><path d="M877.38,489.76c-.51-10.35.28-20.82-1-31.07a216.1,216.1,0,0,0-6.91-32.6A223,223,0,0,0,858.27,395C852,381.24,843.1,369,834.77,356.33,819.4,333.09,797,317.82,774.39,303c-5.76-3.77-12.36-7.62-19.06-9.69-15.22-4.71-29.85-11.16-46-13.3-14.88-2-29.82-4.71-44.68-3.47-22.15,1.89-43.89,6.1-64.86,14.48a212.56,212.56,0,0,0-53.58,31.38c-27.55,21.89-46.49,50.31-60.07,82.78-7.44,17.76-10.4,36.45-14.76,54.87-.48,2,2.12,4.87-.71,6.09-2.47,1.1-3.88-1.91-5.46-3.23a198.08,198.08,0,0,0-58.92-34.64c-13.51-5.05-27.3-7.95-41.27-10-23.14-3.37-46.18-1.73-68.94,4.08-23.93,6.14-46.18,15.39-65.73,31.09-16.49,13.23-31.2,28.09-41.6,46.34A131.94,131.94,0,0,0,171.13,558c-1,18.27,2,36,7.14,53.42,3.52,12,11.62,21.71,16.29,33.13,1.91,4.64,9.71,7.57,7,12.69-2.09,3.93-8.59,5.46-13.08,8.13-11.62,6.91-17.61,24.37-10.68,35.74,12.93,21.12,28.55,39.68,54.14,46.33,10.27,2.7,20.47,1.3,28.72-4.28,7.57-5.1,15-6.4,23.3-5.4,4.56.56,9.86-1.38,13.58,2.6,9.64,10.32,21.87,15.24,35.13,19.11,16.56,4.82,33.1,3.37,48.45-2.11,16.87-6,31.6-16.62,41.23-32.83,1.58-2.68,3.73-5.23,7.7-6.25C442.88,715,456,715,469,714.81c20.85-.2,41.75-1,62.47,3,12,2.29,24.26,2.9,36.27,5.1,15,2.7,30.12,3.9,45.21,5.2,18,1.55,36,2.7,53.86,1.5a11.33,11.33,0,0,0,3.11.53c20.92-2.62,42.1-3.08,62.26-11,11.73-4.56,21.84-10.4,28.7-21,4.95-7.62,1.91-13.81-7.39-15.19a16.25,16.25,0,0,1-6.75-2.86c-1.87-1.17-1.33-3.23.33-3.1,7.36.5,11.49-5.41,17.12-8.16a189.81,189.81,0,0,0,39.13-25,209.31,209.31,0,0,0,45.08-53.19c6.25-10.43,10.61-21.72,15.55-32.75,4.49-10,7.11-20.67,9.23-31.12C875.57,514.69,878,502.35,877.38,489.76ZM571.1,672.63A20.57,20.57,0,0,0,569.42,685c1.17,6.14-3.06,6.52-6.24,6.12-15.4-2-30.87-3.68-44.63-12.19-31.89-19.67-57.14-46.82-83.17-73.1-4.2-4.23-8.38-8.48-12.59-12.69-.84-.84-1.73-2.34-3-1.12a5.36,5.36,0,0,0-1.15,3.39,5.62,5.62,0,0,0,1,2.8c8.43,15.27,14.83,31.58,25.05,46,6.88,9.66,11.8,20.69,19.58,29.79,2.9,3.39,1.81,7.57,3.21,11.27,1.14,3-2.68,3.92-4.87,4.53-8.36,2.27-16-2.21-24-3.41-2-.31-2.83-3.44-2.73-5.76a82,82,0,0,0-4.63-30.53c-7-19.91-18-36.3-37.9-46.09-9.71-4.76-19.22-8.84-29.95-10.17-12.34-1.52-24.42-1.63-35.94,4.08.89,3.32,3.44,2.81,5.91,3.39,13.13,3.09,26.49,5.35,38.11,13.2,7.57,5.13,16.33,8.72,21.89,16.32,13.1,17.86,20.62,36.67,11.32,59.25-7.52,18.25-20.14,30.69-37.88,38.54-2.93,1.33-5.5,3.44-8.43,4.84-7.95,3.85-16.16,3.24-24.52,1.28-21.31-5-42.72-9.74-62.93-18.43-2-.87-6.09-.84-5-4.23.76-2.42,4.17-3.06,7-3.39,11.29-1.33,21.64,3.44,32.53,4.79,8.3,1.07,16.54,2.83,24.85,3.95,2.16.31,4.12-1.14,5.78-3.49-19.78-5.94-37.69-13.71-54.21-25.26-13.38-9.4-25.74-19.21-34.79-33-8.87-13.56-16.13-27.68-20-43.49-2.4-9.76-2.6-19.7-2.25-29.54a92.82,92.82,0,0,1,7.83-34.73c5.33-12,11.62-23.33,20.85-33.19,9.76-10.42,19.72-20.87,31.42-28.57,12.34-8.13,26.31-13.92,40.71-18.71,21.38-7.11,43.07-9.73,65.35-9.1a199.88,199.88,0,0,1,37.77,5c11.57,2.6,22.07,7.92,33.44,10.68,9.81,2.37,9.15,10.68,9.27,17.71.26,14,2.65,27.43,5.43,41.06,3.77,18.43,10.81,35.53,19.6,51.66,10.1,18.53,22.3,35.84,38.46,50,9.51,8.33,18,17.84,29.95,23C572.15,660.45,574.24,665.75,571.1,672.63Zm39.43,22.25c-5.43-.07-14.7-8.38-14.78-13.2-.08-5.68,9.81-15.7,15.19-15.34s12.77,9.35,12.59,15.11C623.35,687.59,616.22,695,610.53,694.88Zm242.39-169a251.51,251.51,0,0,1-11,42.79c-6.06,17.59-15.42,33.14-25.1,48.61-5.81,9.35-14,16.82-21.67,24.67a13,13,0,0,1-8.64,3.92c-1.76.16-3.24-.05-4.82,1.23-13.55,10.86-29.84,10.86-46,10.88-5.68,0-11.44.54-16.31-5.05-3.19-3.69-9.76-1.3-14.78-2.21-6.38-1.12-12.42-3.47-18.2-5.46-6.53-2.27-14-3.16-19.6-8.1a2.51,2.51,0,0,0-4,.2c-1.45,1.66-2,3.14-.41,5.3A49.49,49.49,0,0,0,681,658.46c9.46,4.66,18.81,9.53,28.14,14.4,4,2.09,4.15,4,1.3,8.11-11.6,16.56-28.62,21-47.18,22.6a60.44,60.44,0,0,1-8.92.26c-9.07-.59-9.76-1.86-6.88-10.55,4.61-14,1.07-26.92-9.25-36.07-11.47-10.19-25.69-14.55-41.5-9.15-5.68,1.94-11.39,3.21-15.52,8.16-1.78,2.11-4,1.53-6.68,0-13.17-7.34-22.63-18.53-31.22-30.41-2.7-3.74-5.22-7.75-8.08-11.42-11.77-15.14-18.93-32.42-25.41-50.31-6.14-17-9.3-34.61-11.39-52.43-1.12-9.6-.71-19.44-.69-29.18,0-2.06,1.35-4.13,4.05-5.71,1.23,9.79,5.74,16.34,13.74,20.55-2.24-8.87-5-17.39-6.17-26.33-2.55-20.55,5.66-40.43,27.56-47.49,5.68-1.83,12.18.49,16.82,5.2,2.16,2.2,3.85,4.92,8.25,6.2-2.44-5.89-2.06-11.62-5.35-16.06-6.85-9.23-19.85-10.6-30.07-6.52a75.11,75.11,0,0,0-10,5c-1.48.87-2.6,1.48-4,.13s-1-2.63-.28-4.1c3-6.27,5.71-12.65,8.79-18.86,12.67-25.31,31.51-45.55,52.69-63.93,12.33-10.7,26.73-17.38,41.44-24.16,23.17-10.65,47.43-13.94,72.15-12.33a155.34,155.34,0,0,1,58.62,15.75c22.94,11.19,43.48,25.15,59.41,44.8,13.61,16.8,25.57,34.87,33.39,55.59a320,320,0,0,1,10.83,33c3.11,12.08,4.44,24.6,5.46,37.06A193.21,193.21,0,0,1,852.92,525.85Z" transform="translate(-18.6 -25.69)"/><path d="M170,822.59c5,.2,7.47,3.69,10.77,6,22,15.54,43.88,31.06,68.05,43.46,13.84,7.1,27.77,14.09,42,20.08C306.58,898.77,323,904,339.47,908.8a416,416,0,0,0,53.21,12.29c14.91,2.29,29.95,4.91,45.26,4.78,10.76-.09,21.61,2.27,32.29,1.53,17.73-1.22,35.52-1.31,53.25-3.69,15.25-2.05,30.36-4.83,45.47-7.47,10.78-1.88,21.3-5.45,31.81-8.66,12.26-3.74,24.45-7.7,36.52-12a157.16,157.16,0,0,0,16.83-7.26c15.68-7.75,31.39-15.39,46.66-24.13,42.44-24.3,80.52-53.88,112.82-90.34,15.36-17.34,30.17-35.38,42.54-55.38,6.86-11.1,14-22.16,20.5-33.47a358.6,358.6,0,0,0,20.83-43.31c4.8-11.68,9.52-23.4,13.62-35.31,3.59-10.45,6.49-21.16,9.06-32,2.2-9.3,4.45-18.57,6.12-28,2.35-13.25,4.34-26.51,5.62-39.95a451.64,451.64,0,0,0,2.26-47.91,496.36,496.36,0,0,0-4.68-64.85,438.75,438.75,0,0,0-10-51c-5.37-20.23-11.69-40.31-20.28-59.62-6.21-14-12.09-28.06-19.49-41.45-5.37-9.7-10.46-19.63-16.62-28.82-10.49-15.66-20-32.09-33.34-45.67-1.49-1.52-2.26-2.73-.3-4.26s2.8.3,4.16,1.41c14.61,11.86,26,26.68,38.19,40.81a420.63,420.63,0,0,1,38.82,52.69c6,9.69,11.74,19.89,17,30.2,6.91,13.43,13.37,27.05,19.24,40.87a378.25,378.25,0,0,1,12.81,35.83c4.31,13.88,7.87,27.88,11.06,42,2.21,9.8,4,19.65,5.29,29.63,1.55,11.72,3.46,23.39,4.26,35.18.95,13.82,1.3,27.64.92,41.53-.39,14.31-.64,28.57-2.44,42.82C976.18,576.6,973,597.16,968,617.49a493.79,493.79,0,0,1-16.87,54.1,425.83,425.83,0,0,1-21.75,49c-7.67,14.66-16.13,28.72-25.18,42.61-22.51,34.55-48.08,66.4-79.53,93-16.58,14-33.37,27.9-51.92,39.63C761.44,903,750.1,910.19,738.63,917c-12.48,7.39-26,13-39.28,19-9.21,4.18-18.47,8.6-28.16,11.25-11,3-21.71,7-32.69,10-13.25,3.7-26.69,6.43-40,9.53a193.43,193.43,0,0,1-33.36,4.73c-12.08.63-24.07,2.21-36.21,2.56a512,512,0,0,1-55.14-1.57,411.5,411.5,0,0,1-58.16-8.46c-14.65-3.31-29.05-7.64-43.5-11.74-17.41-4.94-34-11.91-50.49-18.83-8.66-3.63-17.3-8.37-25.83-12.71-11-5.6-20.94-13-32.31-18-5.31-2.34-9.29-7.51-14.36-10.59-25.77-15.67-46.94-36.74-68.28-57.61C177,830.84,173.59,826.61,170,822.59Z" transform="translate(-18.6 -25.69)"/><path d="M529.14,462.8c.38,1.22,1.19,2.39-.16,3.26s-2.19-.41-3.26-1c-3.82-2.11-6.37-5.81-6-9.55.54-5,5.25-7.37,10.83-9.76A21.87,21.87,0,0,0,529.14,462.8Zm78.7,135.33c-1,2.43-4.87,3.06-8.54,2.86-11-.59-21.13-2.7-28-12.13-7.57-10.38-8.36-22.13-7.06-35.92a24.77,24.77,0,0,1,8.69,10.61c6.32,13.2,15.75,23,29.31,29C604.3,593.47,609.42,594.34,607.84,598.13Zm27.3-47.66c-4.57-18.37-20.75-17.94-35.46-20.67,8.9-7.82,24.75-7.11,32.22.51C637.81,536.35,639.44,545.66,635.14,550.47Zm120.93,80.62c-10.34-14.94-21.12-26.76-40.29-24.62,11.77-7.57,23.75-9.3,33.79-.89C756,611,758.21,620,756.07,631.09Z" transform="translate(-18.6 -25.69)"/><path class="cls-1" d="M529.14,462.8c.38,1.22,1.19,2.39-.16,3.26s-2.19-.41-3.26-1c-3.82-2.11-6.37-5.81-6-9.55.54-5,5.25-7.37,10.83-9.76A21.87,21.87,0,0,0,529.14,462.8Z" transform="translate(-18.6 -25.69)"/><path class="cls-1" d="M607.84,598.13c-1,2.43-4.87,3.06-8.54,2.86-11-.59-21.13-2.7-28-12.13-7.57-10.38-8.36-22.13-7.06-35.92a24.77,24.77,0,0,1,8.69,10.61c6.32,13.2,15.75,23,29.31,29C604.3,593.47,609.42,594.34,607.84,598.13Z" transform="translate(-18.6 -25.69)"/><path class="cls-1" d="M635.14,550.47c-4.57-18.37-20.75-17.94-35.46-20.67,8.9-7.82,24.75-7.11,32.22.51C637.81,536.35,639.44,545.66,635.14,550.47Z" transform="translate(-18.6 -25.69)"/><path class="cls-1" d="M756.07,631.09c-10.34-14.94-21.12-26.76-40.29-24.62,11.77-7.57,23.75-9.3,33.79-.89C756,611,758.21,620,756.07,631.09Z" transform="translate(-18.6 -25.69)"/><path d="M607.84,598.13c-1,2.43-4.87,3.06-8.54,2.86-11-.59-21.13-2.7-28-12.13-7.57-10.38-8.36-22.13-7.06-35.92a24.77,24.77,0,0,1,8.69,10.61c6.32,13.2,15.75,23,29.31,29C604.3,593.47,609.42,594.34,607.84,598.13Z" transform="translate(-18.6 -25.69)"/><path d="M756.07,631.09c-10.34-14.94-21.12-26.76-40.29-24.62,11.77-7.57,23.75-9.3,33.79-.89C756,611,758.21,620,756.07,631.09Z" transform="translate(-18.6 -25.69)"/><path d="M635.14,550.47c-4.57-18.37-20.75-17.94-35.46-20.67,8.9-7.82,24.75-7.11,32.22.51C637.81,536.35,639.44,545.66,635.14,550.47Z" transform="translate(-18.6 -25.69)"/><path d="M529.14,462.8c.38,1.22,1.19,2.39-.16,3.26s-2.19-.41-3.26-1c-3.82-2.11-6.37-5.81-6-9.55.54-5,5.25-7.37,10.83-9.76A21.87,21.87,0,0,0,529.14,462.8Z" transform="translate(-18.6 -25.69)"/></svg>