<?xml version="1.0" standalone="no"?>
<!DOCTYPE svg PUBLIC "-//W3C//DTD SVG 20010904//EN"
 "http://www.w3.org/TR/2001/REC-SVG-20010904/DTD/svg10.dtd">
<svg version="1.0" xmlns="http://www.w3.org/2000/svg"
 width="165.000000pt" height="113.000000pt" viewBox="0 0 165.000000 113.000000"
 preserveAspectRatio="xMidYMid meet">

<g transform="translate(0.000000,113.000000) scale(0.100000,-0.100000)"
fill="#7c3aed" stroke="none">
<path d="M899 1046 c-101 -36 -137 -81 -146 -185 -5 -48 -1 -68 16 -105 22
-45 21 -66 -2 -66 -7 0 -30 -12 -51 -26 -44 -30 -222 -105 -230 -97 -3 3 -35
-5 -72 -18 -96 -34 -138 -76 -173 -174 -28 -78 -29 -79 -41 -53 -23 50 -46 45
-78 -18 -11 -22 -28 -46 -36 -53 -9 -8 -16 -24 -16 -37 0 -29 40 -94 58 -94 7
0 17 -11 23 -24 6 -13 26 -32 44 -42 32 -17 36 -17 94 2 52 16 64 24 77 54 9
19 18 37 20 39 1 1 31 -14 65 -35 54 -34 71 -39 120 -39 49 0 60 -3 68 -21 6
-15 27 -25 73 -36 38 -10 65 -12 69 -6 7 11 38 13 62 3 12 -5 17 -3 17 9 0 14
3 14 20 4 23 -15 34 -6 25 21 -7 22 -58 41 -111 41 -34 0 -49 22 -60 88 -6 36
-4 38 29 50 19 7 57 30 84 50 26 21 82 60 123 86 l75 48 75 -8 c100 -9 203 -7
268 7 42 8 58 8 82 -4 31 -16 44 -10 34 16 -3 9 12 37 35 68 57 75 47 113 -16
56 -20 -17 -29 -19 -80 -11 -32 5 -124 7 -204 5 -149 -3 -186 5 -123 28 26 9
34 18 34 37 0 13 4 24 9 24 6 0 22 11 37 25 22 21 25 29 17 47 -6 15 -5 39 4
77 18 78 16 107 -9 152 -26 47 -76 83 -151 109 -65 23 -107 25 -158 6z"/>
</g>
</svg>
